<svg id="svg" version="1.1" xmlns="http://www.w3.org/2000/svg" xmlns:xlink="http://www.w3.org/1999/xlink" width="400" height="500.2271006813021" viewBox="0, 0, 400,500.2271006813021"><g id="svgg"><path id="path0" d="M226.773 7.690 C 226.703 7.756,225.148 7.967,223.316 8.158 C 189.844 11.664,168.373 37.277,163.145 79.939 C 162.449 85.621,162.639 102.374,163.470 108.554 C 169.379 152.510,193.735 178.959,230.129 180.941 C 244.660 181.733,265.589 175.557,279.485 166.378 C 281.234 165.222,282.887 164.184,283.158 164.070 C 284.938 163.320,292.931 156.147,296.596 152.009 C 339.704 103.349,316.510 26.578,253.866 10.581 C 246.008 8.575,227.879 6.640,226.773 7.690 M267.994 24.094 C 282.119 28.549,300.053 48.159,302.195 61.490 C 303.144 67.394,300.062 71.313,294.474 71.308 C 290.123 71.303,287.001 68.430,281.781 59.626 C 274.594 47.505,273.104 46.128,263.285 42.536 C 256.328 39.991,253.916 38.490,252.450 35.797 C 248.082 27.772,257.403 20.754,267.994 24.094 M302.346 76.338 C 307.278 78.655,308.677 86.468,304.825 90.174 C 299.036 95.742,290.191 92.384,289.833 84.481 C 289.556 78.390,296.751 73.708,302.346 76.338 M106.586 185.118 C 93.040 189.133,91.882 204.177,104.705 209.550 C 109.039 211.366,110.128 211.443,126.491 211.089 C 136.421 210.875,149.190 210.864,165.481 211.055 C 206.030 211.530,254.539 211.447,257.200 210.897 C 272.571 207.722,276.269 191.606,262.806 186.465 C 256.992 184.244,263.058 184.397,181.859 184.422 L 108.857 184.444 106.586 185.118 " stroke="none" fill="#0f1818" fill-rule="evenodd"></path><path id="path1" d="M180.167 0.321 C 139.427 2.804,103.716 32.833,89.368 76.672 C 76.768 115.171,83.511 154.437,107.546 182.519 L 109.171 184.418 181.664 184.409 C 221.535 184.404,254.224 184.333,254.305 184.251 C 254.387 184.170,234.650 184.103,210.447 184.103 L 166.439 184.103 164.446 183.011 C 135.246 167.016,115.859 130.651,117.302 94.579 C 119.435 41.227,157.463 5.450,212.038 5.450 C 217.803 5.450,217.999 5.301,213.777 4.127 C 204.745 1.617,191.513 -0.249,184.860 0.049 C 184.360 0.072,182.248 0.194,180.167 0.321 M223.240 8.082 C 223.531 8.158,224.008 8.158,224.300 8.082 C 224.591 8.005,224.353 7.943,223.770 7.943 C 223.187 7.943,222.949 8.005,223.240 8.082 M261.550 23.232 C 262.094 23.300,262.912 23.298,263.367 23.229 C 263.822 23.160,263.376 23.105,262.377 23.107 C 261.378 23.108,261.005 23.165,261.550 23.232 M253.731 26.571 L 252.687 27.706 253.823 26.663 C 254.880 25.692,255.098 25.435,254.866 25.435 C 254.816 25.435,254.305 25.946,253.731 26.571 M251.407 32.097 C 251.407 32.846,251.466 33.153,251.538 32.778 C 251.611 32.403,251.611 31.790,251.538 31.416 C 251.466 31.041,251.407 31.347,251.407 32.097 M286.904 36.942 C 288.563 38.607,289.989 39.970,290.072 39.970 C 290.155 39.970,288.866 38.607,287.207 36.942 C 285.548 35.276,284.122 33.914,284.039 33.914 C 283.955 33.914,285.245 35.276,286.904 36.942 M274.186 48.448 C 274.837 49.114,275.437 49.659,275.520 49.659 C 275.604 49.659,275.140 49.114,274.489 48.448 C 273.839 47.782,273.238 47.237,273.155 47.237 C 273.072 47.237,273.536 47.782,274.186 48.448 M302.278 63.588 C 302.278 64.338,302.337 64.644,302.409 64.269 C 302.481 63.895,302.481 63.282,302.409 62.907 C 302.337 62.532,302.278 62.839,302.278 63.588 M293.797 71.375 C 294.257 71.445,294.938 71.443,295.311 71.371 C 295.683 71.299,295.307 71.243,294.474 71.245 C 293.641 71.247,293.336 71.306,293.797 71.375 M303.407 77.006 C 303.407 77.058,303.849 77.501,304.391 77.990 L 305.375 78.880 304.485 77.896 C 303.656 76.978,303.407 76.772,303.407 77.006 M162.680 84.027 C 162.684 84.693,162.746 84.930,162.818 84.554 C 162.891 84.177,162.888 83.632,162.812 83.342 C 162.736 83.053,162.677 83.361,162.680 84.027 M162.425 92.960 C 162.425 95.708,162.470 96.832,162.527 95.458 C 162.583 94.084,162.583 91.836,162.527 90.462 C 162.470 89.088,162.425 90.212,162.425 92.960 M304.601 90.159 L 303.558 91.294 304.693 90.251 C 305.750 89.280,305.968 89.023,305.737 89.023 C 305.686 89.023,305.175 89.534,304.601 90.159 M292.203 90.386 C 292.768 90.969,293.298 91.446,293.381 91.446 C 293.465 91.446,293.071 90.969,292.506 90.386 C 291.941 89.803,291.410 89.326,291.327 89.326 C 291.244 89.326,291.638 89.803,292.203 90.386 M162.680 101.893 C 162.684 102.559,162.746 102.796,162.818 102.419 C 162.891 102.042,162.888 101.497,162.812 101.208 C 162.736 100.918,162.677 101.226,162.680 101.893 M185.314 160.636 C 185.879 161.219,186.409 161.696,186.493 161.696 C 186.576 161.696,186.182 161.219,185.617 160.636 C 185.052 160.053,184.522 159.576,184.438 159.576 C 184.355 159.576,184.749 160.053,185.314 160.636 M189.251 164.516 C 189.251 164.568,189.693 165.011,190.235 165.500 L 191.219 166.389 190.329 165.405 C 189.500 164.488,189.251 164.282,189.251 164.516 M227.937 180.986 C 228.314 181.059,228.859 181.056,229.148 180.980 C 229.438 180.904,229.129 180.845,228.463 180.849 C 227.797 180.852,227.560 180.914,227.937 180.986 M236.718 180.986 C 237.095 181.059,237.640 181.056,237.929 180.980 C 238.219 180.904,237.911 180.845,237.245 180.849 C 236.578 180.852,236.341 180.914,236.718 180.986 M262.528 186.374 C 262.945 186.612,263.422 186.807,263.588 186.807 C 263.755 186.807,263.550 186.612,263.134 186.374 C 262.718 186.136,262.241 185.941,262.074 185.941 C 261.908 185.941,262.112 186.136,262.528 186.374 M127.825 210.958 L 120.147 211.063 120.333 212.193 C 124.868 239.704,103.240 293.460,79.746 313.069 C 63.669 326.488,49.828 327.239,36.996 315.389 C 32.289 311.041,28.592 309.457,23.176 309.468 C 6.545 309.500,-5.232 326.531,2.495 339.375 C 12.159 355.442,50.333 363.952,76.154 355.796 C 96.981 349.218,109.098 333.508,122.170 296.139 C 128.167 278.995,133.078 266.815,133.730 267.467 C 134.501 268.238,130.744 295.647,127.019 316.427 C 123.744 334.697,122.804 340.721,121.895 349.281 C 119.404 372.720,121.322 399.686,128.110 436.639 C 130.737 450.942,138.104 460.446,149.656 464.438 C 163.663 469.277,174.382 461.134,176.197 444.273 C 177.262 434.389,176.022 429.214,171.885 426.269 L 170.942 425.597 171.765 427.000 L 172.587 428.403 170.659 430.207 C 154.914 444.935,138.201 427.593,133.379 391.522 C 131.508 377.527,133.109 340.971,138.531 273.883 C 140.476 249.824,141.512 235.896,141.853 229.220 C 141.951 227.305,142.105 224.894,142.196 223.862 L 142.361 221.986 143.928 221.519 C 155.428 218.095,171.046 215.079,183.952 213.789 C 196.989 212.486,196.293 212.505,245.337 212.175 L 258.273 212.088 259.400 214.589 C 260.843 217.794,261.046 217.641,259.724 214.344 L 258.709 211.809 243.435 211.754 C 235.034 211.724,213.512 211.554,195.609 211.377 C 149.152 210.917,136.523 210.839,127.825 210.958 M215.897 215.199 C 187.761 216.852,174.841 228.238,192.581 235.744 C 212.830 244.312,254.418 240.796,260.000 230.045 C 264.518 221.342,241.754 213.679,215.897 215.199 M252.157 266.999 C 251.697 267.100,251.635 267.460,251.682 269.742 C 251.715 271.301,251.777 271.754,251.837 270.855 C 252.061 267.468,252.260 267.430,255.204 270.215 C 258.330 273.171,260.201 276.468,266.219 289.629 C 271.478 301.128,274.929 307.148,279.585 312.945 C 297.111 334.762,327.106 339.262,372.240 326.845 C 381.512 324.294,387.755 320.407,392.135 314.459 C 394.641 311.056,399.004 303.516,399.432 301.849 C 401.682 293.085,396.971 283.588,388.191 279.191 L 386.828 278.508 387.764 279.527 C 390.256 282.238,391.200 284.689,391.420 289.023 C 391.975 299.939,386.509 306.757,372.597 312.501 C 370.098 313.532,366.981 314.843,365.669 315.412 C 356.510 319.390,330.783 321.543,317.224 319.467 C 292.637 315.703,278.294 304.869,262.284 277.970 C 256.688 268.568,254.721 266.437,252.157 266.999 M239.407 286.330 C 239.300 287.109,239.230 288.374,239.250 289.141 L 239.288 290.537 239.523 288.928 C 239.862 286.601,239.919 286.660,241.286 290.772 C 243.782 298.278,244.741 303.510,246.472 319.058 C 250.077 351.443,257.316 364.567,279.788 379.455 C 309.538 399.165,337.785 404.265,369.266 395.610 C 382.929 391.854,388.017 377.719,380.930 363.210 C 379.025 359.310,374.388 354.353,373.487 355.254 C 373.407 355.334,373.889 355.762,374.559 356.205 C 376.012 357.167,375.996 356.986,374.886 360.029 C 371.881 368.264,360.393 376.377,347.161 379.610 C 308.110 389.152,288.110 382.777,264.538 353.277 C 253.589 339.574,251.557 334.687,247.392 312.036 C 244.530 296.474,242.793 290.164,240.190 285.884 L 239.601 284.915 239.407 286.330 M238.986 292.051 C 238.990 292.718,239.052 292.955,239.124 292.578 C 239.197 292.201,239.194 291.656,239.118 291.367 C 239.042 291.077,238.983 291.385,238.986 292.051 M220.802 301.590 C 220.802 302.006,220.911 302.687,221.045 303.104 L 221.287 303.861 221.287 303.104 C 221.287 302.687,221.178 302.006,221.045 301.590 L 220.802 300.833 220.802 301.590 M187.906 307.978 C 187.650 310.574,187.877 311.115,188.185 308.644 C 188.305 307.678,188.544 306.802,188.714 306.695 C 189.045 306.490,188.777 305.829,188.363 305.829 C 188.228 305.829,188.022 306.796,187.906 307.978 M192.097 314.762 C 192.462 316.234,192.941 319.579,193.938 327.631 C 196.718 350.068,202.679 366.944,212.364 379.797 C 214.587 382.747,214.477 382.931,214.964 375.465 C 215.351 369.548,215.371 343.545,214.989 344.436 C 214.846 344.769,214.719 346.434,214.707 348.135 C 214.683 351.580,214.519 351.858,212.510 351.852 C 205.876 351.832,198.459 339.290,193.754 320.135 C 193.069 317.346,192.382 314.860,192.228 314.610 C 192.010 314.258,191.981 314.293,192.097 314.762 M25.896 322.768 C 32.531 324.614,43.382 330.192,50.114 335.218 C 56.258 339.805,58.573 343.513,57.087 346.386 C 55.021 350.382,30.106 347.739,20.910 342.549 C 8.725 335.671,10.059 322.817,23.019 322.216 C 23.439 322.196,24.733 322.445,25.896 322.768 M161.582 326.117 C 162.747 351.087,168.170 378.347,175.538 396.262 C 188.397 427.527,214.743 456.813,234.217 461.488 C 247.508 464.680,262.814 449.221,259.649 435.800 C 258.599 431.346,255.399 426.816,254.100 427.946 C 253.367 428.583,245.342 430.789,241.641 431.372 C 206.454 436.908,172.376 393.772,162.792 331.567 C 161.478 323.035,161.428 322.812,161.582 326.117 M223.211 354.126 C 222.990 361.453,222.766 367.598,222.712 367.779 C 222.451 368.664,223.234 379.707,223.793 383.025 C 226.169 397.115,229.575 401.494,246.590 412.340 C 264.776 423.932,267.125 427.608,267.246 444.663 C 267.320 455.041,267.906 456.968,272.460 461.809 C 278.266 467.981,283.369 469.930,293.717 469.927 C 305.707 469.924,309.152 467.833,311.868 458.909 C 313.217 454.478,313.832 447.172,313.119 444.058 L 312.911 443.149 312.666 443.906 C 311.519 447.447,304.508 448.774,293.414 447.549 C 282.180 446.309,270.835 438.340,269.476 430.734 C 268.108 423.076,260.631 415.267,247.994 408.300 C 232.548 399.783,225.442 381.319,223.824 345.496 C 223.626 341.099,223.587 341.643,223.211 354.126 M197.749 369.793 C 197.719 370.134,199.617 374.292,199.744 374.164 C 199.805 374.103,199.386 373.044,198.812 371.811 C 198.238 370.578,197.760 369.670,197.749 369.793 M113.096 377.783 C 99.226 386.395,81.606 388.802,55.057 385.711 L 49.402 385.052 47.373 385.915 C 32.978 392.033,28.879 409.027,39.006 420.603 C 46.095 428.707,67.787 429.854,93.263 423.472 C 100.400 421.684,117.560 416.272,118.371 415.553 C 118.441 415.491,118.067 413.567,117.540 411.278 C 115.521 402.519,114.770 396.073,114.507 385.260 L 114.307 377.030 113.096 377.783 M85.626 390.779 C 89.222 391.862,90.384 393.558,90.166 397.407 C 89.745 404.845,86.638 407.662,75.632 410.584 C 62.426 414.090,53.789 412.869,48.066 406.687 C 40.607 398.631,45.404 389.122,56.040 390.878 C 58.875 391.346,64.401 391.305,70.462 390.770 C 73.260 390.523,76.230 390.267,77.063 390.201 C 79.517 390.007,84.085 390.315,85.626 390.779 M185.550 436.961 C 184.789 437.405,184.204 439.710,183.654 444.429 C 182.765 452.051,181.297 455.934,176.682 462.863 C 162.989 483.425,143.511 479.652,129.236 453.671 C 127.883 451.209,127.838 451.191,125.529 452.212 C 111.665 458.343,105.325 476.440,112.028 490.744 C 116.379 500.030,131.888 503.052,145.312 497.229 C 155.321 492.888,171.664 479.678,180.196 469.032 C 190.377 456.328,195.540 447.893,195.247 444.441 C 194.836 439.603,188.889 435.015,185.550 436.961 M125.542 469.823 C 133.490 474.025,133.350 479.637,125.296 479.637 C 121.947 479.637,119.521 477.750,118.664 474.477 C 117.498 470.026,121.194 467.524,125.542 469.823 " stroke="none" fill="#b3b3b3" fill-rule="evenodd"></path><path id="path2" d="M209.992 5.474 C 171.153 6.634,142.312 23.656,127.171 54.353 C 104.781 99.748,121.815 158.989,164.118 182.842 L 166.086 183.952 211.355 184.107 L 256.624 184.263 259.019 184.940 C 260.336 185.312,262.158 185.958,263.068 186.374 C 263.977 186.790,265.023 187.131,265.392 187.131 C 266.722 187.131,274.164 178.220,279.049 170.780 C 283.817 163.518,283.802 163.693,279.413 166.565 C 251.483 184.844,217.058 185.667,194.049 168.608 C 160.160 143.481,151.700 77.848,177.064 36.844 C 187.426 20.092,204.865 9.336,223.875 7.970 C 225.348 7.865,226.370 7.680,226.146 7.559 C 225.778 7.362,218.820 5.527,217.714 5.336 C 217.464 5.293,213.989 5.355,209.992 5.474 M258.743 23.740 C 252.926 25.585,250.108 30.745,252.402 35.349 C 253.871 38.297,256.203 39.802,263.360 42.419 C 273.092 45.979,274.842 47.556,281.284 58.572 C 287.183 68.660,290.201 71.408,295.038 71.092 C 307.487 70.279,303.037 52.658,286.256 36.322 C 276.028 26.364,265.562 21.578,258.743 23.740 M296.593 76.124 C 289.401 78.399,287.522 85.796,292.883 90.737 C 298.274 95.706,307.804 90.829,306.941 83.541 C 306.286 78.010,301.493 74.574,296.593 76.124 M226.949 212.277 C 199.614 212.471,195.812 212.604,183.952 213.789 C 171.048 215.078,155.429 218.095,143.928 221.519 L 142.361 221.986 142.196 223.862 C 142.105 224.894,141.951 227.305,141.853 229.220 C 141.512 235.896,140.476 249.824,138.531 273.883 C 133.109 340.971,131.508 377.527,133.379 391.522 C 138.235 427.849,155.790 445.634,171.131 429.771 L 172.542 428.312 170.564 424.830 C 153.084 394.045,147.457 350.160,155.675 308.706 C 156.783 303.116,159.912 291.291,160.281 291.295 C 160.310 291.295,160.339 295.894,160.347 301.515 C 160.406 345.964,176.330 391.667,199.990 415.296 C 215.055 430.343,230.660 434.886,249.205 429.627 C 256.234 427.634,256.287 427.877,247.540 422.031 C 229.012 409.649,214.821 395.719,201.808 377.139 C 200.991 375.973,200.221 374.945,200.096 374.856 C 198.232 373.519,192.248 353.854,190.010 341.711 C 187.843 329.949,186.730 305.829,188.355 305.829 C 189.051 305.829,192.445 314.870,193.789 320.303 C 198.528 339.461,205.899 351.833,212.584 351.852 C 214.462 351.857,214.597 351.562,214.795 347.010 C 215.616 328.185,217.887 309.848,220.255 302.919 L 220.968 300.833 221.155 302.195 C 222.518 312.097,223.048 319.544,223.472 334.746 C 224.301 364.503,226.563 379.236,231.932 389.856 C 236.641 399.170,241.450 404.692,247.994 408.300 C 260.631 415.267,268.108 423.076,269.476 430.734 C 270.835 438.340,282.180 446.309,293.414 447.549 C 311.571 449.553,317.844 444.737,308.543 435.934 C 305.762 433.302,302.469 430.848,292.506 423.981 C 280.845 415.945,273.581 409.605,270.236 404.543 C 269.411 403.295,267.364 400.434,265.688 398.185 C 255.903 385.058,250.142 374.697,244.729 360.484 C 243.351 356.867,240.801 339.340,239.615 325.330 C 239.013 318.219,238.846 288.717,239.393 286.149 L 239.683 284.789 240.925 287.360 C 243.452 292.595,244.675 297.259,247.392 312.036 C 251.557 334.687,253.589 339.574,264.538 353.277 C 288.110 382.777,308.110 389.152,347.161 379.610 C 360.393 376.377,371.881 368.264,374.886 360.029 C 376.004 356.966,376.069 357.308,374.090 355.829 C 367.003 350.529,362.019 350.517,351.395 355.774 C 340.619 361.107,337.264 361.777,325.360 360.970 C 289.884 358.564,274.138 345.395,260.874 307.040 C 254.048 287.301,252.230 280.051,251.722 270.523 C 251.517 266.698,251.666 266.473,253.885 267.235 C 256.042 267.977,257.357 269.687,262.840 278.880 C 278.345 304.877,292.908 315.745,317.224 319.467 C 330.783 321.543,356.510 319.390,365.669 315.412 C 366.981 314.843,370.098 313.532,372.597 312.501 C 386.510 306.756,391.980 299.933,391.418 289.023 C 390.628 273.658,375.033 271.840,359.673 285.323 C 350.847 293.070,345.376 295.457,334.141 296.459 C 320.540 297.673,305.270 291.867,289.930 279.649 C 278.528 270.568,273.468 261.053,266.001 234.654 C 262.718 223.048,261.664 219.718,260.285 216.593 C 258.000 211.417,258.478 211.952,256.197 212.022 C 255.099 212.056,241.938 212.171,226.949 212.277 M230.280 215.306 C 256.669 217.265,269.025 227.262,254.366 234.792 C 233.761 245.375,184.497 240.430,184.412 227.770 C 184.359 219.773,207.125 213.586,230.280 215.306 M20.687 322.513 C 9.651 324.355,9.783 336.268,20.910 342.549 C 30.106 347.739,55.021 350.382,57.087 346.386 C 59.695 341.343,47.544 331.230,30.734 324.455 C 25.521 322.353,23.724 322.006,20.687 322.513 M77.063 390.201 C 76.230 390.267,73.260 390.523,70.462 390.770 C 64.401 391.305,58.875 391.346,56.040 390.878 C 45.404 389.122,40.607 398.631,48.066 406.687 C 53.789 412.869,62.426 414.090,75.632 410.584 C 86.638 407.662,89.745 404.845,90.166 397.407 C 90.486 391.766,86.308 389.469,77.063 390.201 M119.605 469.901 C 117.329 472.177,118.676 477.173,122.046 478.955 C 125.585 480.826,131.416 479.077,131.416 476.144 C 131.416 471.843,122.419 467.088,119.605 469.901 " stroke="none" fill="#fafbfb" fill-rule="evenodd"></path></g></svg>